# Tiled2Unity generated file. Do not modify by hand.
# Wavefront file for 'Level_01_mesh_0001.obj'

# Vertices (Count = 256)
v -6.24 -5.12 0
v -6.4 -5.12 0
v -6.4 -4.96 0
v -6.24 -4.96 0
v -6.56 -5.12 0
v -6.72 -5.12 0
v -6.72 -4.96 0
v -6.56 -4.96 0
v -6.72 -5.12 0
v -6.88 -5.12 0
v -6.88 -4.96 0
v -6.72 -4.96 0
v -6.88 -5.12 0
v -7.04 -5.12 0
v -7.04 -4.96 0
v -6.88 -4.96 0
v -7.84 -5.12 0
v -8 -5.12 0
v -8 -4.96 0
v -7.84 -4.96 0
v -8 -5.12 0
v -8.16 -5.12 0
v -8.16 -4.96 0
v -8 -4.96 0
v -8.16 -5.12 0
v -8.32 -5.12 0
v -8.32 -4.96 0
v -8.16 -4.96 0
v -8.48 -5.12 0
v -8.639999 -5.12 0
v -8.639999 -4.96 0
v -8.48 -4.96 0
v -6.24 -5.28 0
v -6.4 -5.28 0
v -6.4 -5.12 0
v -6.24 -5.12 0
v -6.56 -5.28 0
v -6.72 -5.28 0
v -6.72 -5.12 0
v -6.56 -5.12 0
v -6.72 -5.28 0
v -6.88 -5.28 0
v -6.88 -5.12 0
v -6.72 -5.12 0
v -6.88 -5.28 0
v -7.04 -5.28 0
v -7.04 -5.12 0
v -6.88 -5.12 0
v -7.04 -5.28 0
v -7.2 -5.28 0
v -7.2 -5.12 0
v -7.04 -5.12 0
v -7.2 -5.28 0
v -7.36 -5.28 0
v -7.36 -5.12 0
v -7.2 -5.12 0
v -7.52 -5.28 0
v -7.68 -5.28 0
v -7.68 -5.12 0
v -7.52 -5.12 0
v -7.68 -5.28 0
v -7.84 -5.28 0
v -7.84 -5.12 0
v -7.68 -5.12 0
v -7.84 -5.28 0
v -8 -5.28 0
v -8 -5.12 0
v -7.84 -5.12 0
v -8 -5.28 0
v -8.16 -5.28 0
v -8.16 -5.12 0
v -8 -5.12 0
v -8.16 -5.28 0
v -8.32 -5.28 0
v -8.32 -5.12 0
v -8.16 -5.12 0
v -8.48 -5.28 0
v -8.639999 -5.28 0
v -8.639999 -5.12 0
v -8.48 -5.12 0
v -6.24 -5.44 0
v -6.4 -5.44 0
v -6.4 -5.28 0
v -6.24 -5.28 0
v -6.4 -5.44 0
v -6.56 -5.44 0
v -6.56 -5.28 0
v -6.4 -5.28 0
v -6.56 -5.44 0
v -6.72 -5.44 0
v -6.72 -5.28 0
v -6.56 -5.28 0
v -6.72 -5.44 0
v -6.88 -5.44 0
v -6.88 -5.28 0
v -6.72 -5.28 0
v -6.88 -5.44 0
v -7.04 -5.44 0
v -7.04 -5.28 0
v -6.88 -5.28 0
v -7.04 -5.44 0
v -7.2 -5.44 0
v -7.2 -5.28 0
v -7.04 -5.28 0
v -7.2 -5.44 0
v -7.36 -5.44 0
v -7.36 -5.28 0
v -7.2 -5.28 0
v -7.36 -5.44 0
v -7.52 -5.44 0
v -7.52 -5.28 0
v -7.36 -5.28 0
v -7.52 -5.44 0
v -7.68 -5.44 0
v -7.68 -5.28 0
v -7.52 -5.28 0
v -7.84 -5.44 0
v -8 -5.44 0
v -8 -5.28 0
v -7.84 -5.28 0
v -8 -5.44 0
v -8.16 -5.44 0
v -8.16 -5.28 0
v -8 -5.28 0
v -8.16 -5.44 0
v -8.32 -5.44 0
v -8.32 -5.28 0
v -8.16 -5.28 0
v -8.32 -5.44 0
v -8.48 -5.44 0
v -8.48 -5.28 0
v -8.32 -5.28 0
v -8.48 -5.44 0
v -8.639999 -5.44 0
v -8.639999 -5.28 0
v -8.48 -5.28 0
v -6.24 -5.6 0
v -6.4 -5.6 0
v -6.4 -5.44 0
v -6.24 -5.44 0
v -6.4 -5.6 0
v -6.56 -5.6 0
v -6.56 -5.44 0
v -6.4 -5.44 0
v -6.56 -5.6 0
v -6.72 -5.6 0
v -6.72 -5.44 0
v -6.56 -5.44 0
v -6.72 -5.6 0
v -6.88 -5.6 0
v -6.88 -5.44 0
v -6.72 -5.44 0
v -6.88 -5.6 0
v -7.04 -5.6 0
v -7.04 -5.44 0
v -6.88 -5.44 0
v -7.04 -5.6 0
v -7.2 -5.6 0
v -7.2 -5.44 0
v -7.04 -5.44 0
v -7.2 -5.6 0
v -7.36 -5.6 0
v -7.36 -5.44 0
v -7.2 -5.44 0
v -7.68 -5.6 0
v -7.84 -5.6 0
v -7.84 -5.44 0
v -7.68 -5.44 0
v -7.84 -5.6 0
v -8 -5.6 0
v -8 -5.44 0
v -7.84 -5.44 0
v -8 -5.6 0
v -8.16 -5.6 0
v -8.16 -5.44 0
v -8 -5.44 0
v -8.16 -5.6 0
v -8.32 -5.6 0
v -8.32 -5.44 0
v -8.16 -5.44 0
v -8.32 -5.6 0
v -8.48 -5.6 0
v -8.48 -5.44 0
v -8.32 -5.44 0
v -8.48 -5.6 0
v -8.639999 -5.6 0
v -8.639999 -5.44 0
v -8.48 -5.44 0
v -6.4 -5.76 0
v -6.56 -5.76 0
v -6.56 -5.6 0
v -6.4 -5.6 0
v -6.56 -5.76 0
v -6.72 -5.76 0
v -6.72 -5.6 0
v -6.56 -5.6 0
v -6.72 -5.76 0
v -6.88 -5.76 0
v -6.88 -5.6 0
v -6.72 -5.6 0
v -7.2 -5.76 0
v -7.36 -5.76 0
v -7.36 -5.6 0
v -7.2 -5.6 0
v -8 -5.76 0
v -8.16 -5.76 0
v -8.16 -5.6 0
v -8 -5.6 0
v -8.16 -5.76 0
v -8.32 -5.76 0
v -8.32 -5.6 0
v -8.16 -5.6 0
v -8.32 -5.76 0
v -8.48 -5.76 0
v -8.48 -5.6 0
v -8.32 -5.6 0
v -6.56 -5.92 0
v -6.72 -5.92 0
v -6.72 -5.76 0
v -6.56 -5.76 0
v -6.72 -5.92 0
v -6.88 -5.92 0
v -6.88 -5.76 0
v -6.72 -5.76 0
v -8 -5.92 0
v -8.16 -5.92 0
v -8.16 -5.76 0
v -8 -5.76 0
v -8.16 -5.92 0
v -8.32 -5.92 0
v -8.32 -5.76 0
v -8.16 -5.76 0
v -8 -6.08 0
v -8.16 -6.08 0
v -8.16 -5.92 0
v -8 -5.92 0
v -8.16 -6.08 0
v -8.32 -6.08 0
v -8.32 -5.92 0
v -8.16 -5.92 0
v -7.84 -6.24 0
v -8 -6.24 0
v -8 -6.08 0
v -7.84 -6.08 0
v -8 -6.24 0
v -8.16 -6.24 0
v -8.16 -6.08 0
v -8 -6.08 0
v -7.84 -6.4 0
v -8 -6.4 0
v -8 -6.24 0
v -7.84 -6.24 0
v -8 -6.4 0
v -8.16 -6.4 0
v -8.16 -6.24 0
v -8 -6.24 0

# Texture cooridinates (Count = 13)
vt 0.2 0.2608696
vt 0.16 0.2608696
vt 0.16 0.3043478
vt 0.2 0.3043478
vt 0.2 0.173913
vt 0.16 0.173913
vt 0.16 0.2173913
vt 0.2 0.2173913
vt 0.24 0.3043478
vt 0.2 0.3478261
vt 0.24 0.3478261
vt 0.16 0.3478261
vt 0.24 0.2608696

# Normal
vn 0 0 -1

# Mesh description
g Level_01_mesh_0001

# Faces
f 1/1/1 2/2/1 3/3/1 4/4/1
f 5/5/1 6/6/1 7/7/1 8/8/1
f 9/5/1 10/6/1 11/7/1 12/8/1
f 13/5/1 14/6/1 15/7/1 16/8/1
f 17/6/1 18/5/1 19/8/1 20/7/1
f 21/6/1 22/5/1 23/8/1 24/7/1
f 25/6/1 26/5/1 27/8/1 28/7/1
f 29/2/1 30/1/1 31/4/1 32/3/1
f 33/1/1 34/2/1 35/3/1 36/4/1
f 37/5/1 38/6/1 39/7/1 40/8/1
f 41/5/1 42/6/1 43/7/1 44/8/1
f 45/5/1 46/6/1 47/7/1 48/8/1
f 49/5/1 50/6/1 51/7/1 52/8/1
f 53/5/1 54/6/1 55/7/1 56/8/1
f 57/6/1 58/5/1 59/8/1 60/7/1
f 61/6/1 62/5/1 63/8/1 64/7/1
f 65/6/1 66/5/1 67/8/1 68/7/1
f 69/6/1 70/5/1 71/8/1 72/7/1
f 73/6/1 74/5/1 75/8/1 76/7/1
f 77/2/1 78/1/1 79/4/1 80/3/1
f 81/9/1 82/4/1 83/10/1 84/11/1
f 85/4/1 86/3/1 87/12/1 88/10/1
f 89/5/1 90/6/1 91/7/1 92/8/1
f 93/5/1 94/6/1 95/7/1 96/8/1
f 97/5/1 98/6/1 99/7/1 100/8/1
f 101/6/1 102/5/1 103/8/1 104/7/1
f 105/5/1 106/6/1 107/7/1 108/8/1
f 109/6/1 110/5/1 111/8/1 112/7/1
f 113/6/1 114/5/1 115/8/1 116/7/1
f 117/6/1 118/5/1 119/8/1 120/7/1
f 121/6/1 122/5/1 123/8/1 124/7/1
f 125/6/1 126/5/1 127/8/1 128/7/1
f 129/3/1 130/4/1 131/10/1 132/12/1
f 133/4/1 134/9/1 135/11/1 136/10/1
f 137/13/1 138/1/1 139/4/1 140/9/1
f 141/9/1 142/4/1 143/10/1 144/11/1
f 145/4/1 146/3/1 147/12/1 148/10/1
f 149/5/1 150/6/1 151/7/1 152/8/1
f 153/5/1 154/6/1 155/7/1 156/8/1
f 157/5/1 158/6/1 159/7/1 160/8/1
f 161/6/1 162/5/1 163/8/1 164/7/1
f 165/6/1 166/5/1 167/8/1 168/7/1
f 169/6/1 170/5/1 171/8/1 172/7/1
f 173/6/1 174/5/1 175/8/1 176/7/1
f 177/3/1 178/4/1 179/10/1 180/12/1
f 181/4/1 182/9/1 183/11/1 184/10/1
f 185/1/1 186/13/1 187/9/1 188/4/1
f 189/13/1 190/1/1 191/4/1 192/9/1
f 193/1/1 194/2/1 195/3/1 196/4/1
f 197/5/1 198/6/1 199/7/1 200/8/1
f 201/6/1 202/5/1 203/8/1 204/7/1
f 205/6/1 206/5/1 207/8/1 208/7/1
f 209/2/1 210/1/1 211/4/1 212/3/1
f 213/1/1 214/13/1 215/9/1 216/4/1
f 217/9/1 218/4/1 219/10/1 220/11/1
f 221/4/1 222/3/1 223/12/1 224/10/1
f 225/3/1 226/4/1 227/10/1 228/12/1
f 229/4/1 230/9/1 231/11/1 232/10/1
f 233/2/1 234/1/1 235/4/1 236/3/1
f 237/1/1 238/13/1 239/9/1 240/4/1
f 241/6/1 242/5/1 243/8/1 244/7/1
f 245/6/1 246/5/1 247/8/1 248/7/1
f 249/6/1 250/5/1 251/8/1 252/7/1
f 253/6/1 254/5/1 255/8/1 256/7/1

